<mxfile host="app.diagrams.net" modified="2022-02-17T15:56:33.312Z" agent="5.0 (Macintosh; Intel Mac OS X 10_15_7) AppleWebKit/537.36 (KHTML, like Gecko) Chrome/98.0.4758.87 Safari/537.36" etag="gUd679zK7CY0TW37j3Xf" version="16.5.6" type="github">
  <diagram id="IZokSG7Yw7mGTDMLNOXQ" name="Page-1">
    <mxGraphModel dx="596" dy="661" grid="1" gridSize="10" guides="1" tooltips="1" connect="1" arrows="1" fold="1" page="1" pageScale="1" pageWidth="827" pageHeight="1169" math="0" shadow="0">
      <root>
        <mxCell id="0" />
        <mxCell id="1" parent="0" />
        <mxCell id="p_HESIMncqtlb5lp4NN8-1" value="Enigma machine" style="rounded=0;whiteSpace=wrap;html=1;" parent="1" vertex="1">
          <mxGeometry x="320" width="120" height="60" as="geometry" />
        </mxCell>
        <mxCell id="p_HESIMncqtlb5lp4NN8-2" value="Keyboard" style="rounded=0;whiteSpace=wrap;html=1;" parent="1" vertex="1">
          <mxGeometry y="100" width="120" height="60" as="geometry" />
        </mxCell>
        <mxCell id="p_HESIMncqtlb5lp4NN8-3" value="Plugboard" style="rounded=0;whiteSpace=wrap;html=1;" parent="1" vertex="1">
          <mxGeometry x="160" y="100" width="120" height="60" as="geometry" />
        </mxCell>
        <mxCell id="p_HESIMncqtlb5lp4NN8-4" value="Rotors" style="rounded=0;whiteSpace=wrap;html=1;" parent="1" vertex="1">
          <mxGeometry x="320" y="100" width="120" height="60" as="geometry" />
        </mxCell>
        <mxCell id="p_HESIMncqtlb5lp4NN8-5" value="Reflector" style="rounded=0;whiteSpace=wrap;html=1;" parent="1" vertex="1">
          <mxGeometry x="480" y="100" width="120" height="60" as="geometry" />
        </mxCell>
        <mxCell id="p_HESIMncqtlb5lp4NN8-6" value="Lampboard" style="rounded=0;whiteSpace=wrap;html=1;" parent="1" vertex="1">
          <mxGeometry x="640" y="100" width="120" height="60" as="geometry" />
        </mxCell>
        <mxCell id="p_HESIMncqtlb5lp4NN8-8" value="" style="endArrow=none;html=1;rounded=0;" parent="1" edge="1">
          <mxGeometry width="50" height="50" relative="1" as="geometry">
            <mxPoint x="60" y="80" as="sourcePoint" />
            <mxPoint x="700" y="80" as="targetPoint" />
          </mxGeometry>
        </mxCell>
        <mxCell id="p_HESIMncqtlb5lp4NN8-9" value="" style="endArrow=none;html=1;rounded=0;" parent="1" source="p_HESIMncqtlb5lp4NN8-2" edge="1">
          <mxGeometry width="50" height="50" relative="1" as="geometry">
            <mxPoint x="390" y="330" as="sourcePoint" />
            <mxPoint x="60" y="80" as="targetPoint" />
          </mxGeometry>
        </mxCell>
        <mxCell id="p_HESIMncqtlb5lp4NN8-10" value="" style="endArrow=none;html=1;rounded=0;" parent="1" edge="1">
          <mxGeometry width="50" height="50" relative="1" as="geometry">
            <mxPoint x="220" y="100" as="sourcePoint" />
            <mxPoint x="220" y="80" as="targetPoint" />
          </mxGeometry>
        </mxCell>
        <mxCell id="p_HESIMncqtlb5lp4NN8-11" value="" style="endArrow=none;html=1;rounded=0;entryX=0.5;entryY=1;entryDx=0;entryDy=0;" parent="1" target="p_HESIMncqtlb5lp4NN8-1" edge="1">
          <mxGeometry width="50" height="50" relative="1" as="geometry">
            <mxPoint x="379.6800000000001" y="100" as="sourcePoint" />
            <mxPoint x="379.6800000000001" y="80" as="targetPoint" />
          </mxGeometry>
        </mxCell>
        <mxCell id="p_HESIMncqtlb5lp4NN8-12" value="" style="endArrow=none;html=1;rounded=0;" parent="1" edge="1">
          <mxGeometry width="50" height="50" relative="1" as="geometry">
            <mxPoint x="539.6800000000001" y="100" as="sourcePoint" />
            <mxPoint x="539.6800000000001" y="80" as="targetPoint" />
          </mxGeometry>
        </mxCell>
        <mxCell id="p_HESIMncqtlb5lp4NN8-13" value="" style="endArrow=none;html=1;rounded=0;" parent="1" edge="1">
          <mxGeometry width="50" height="50" relative="1" as="geometry">
            <mxPoint x="699.6800000000001" y="100" as="sourcePoint" />
            <mxPoint x="699.6800000000001" y="80" as="targetPoint" />
          </mxGeometry>
        </mxCell>
        <mxCell id="5w7wgQWTN3rOL7jnrAok-1" value="Capture input (to rotors sub-system)" style="rounded=0;whiteSpace=wrap;html=1;" vertex="1" parent="1">
          <mxGeometry y="200" width="120" height="60" as="geometry" />
        </mxCell>
        <mxCell id="5w7wgQWTN3rOL7jnrAok-2" value="" style="endArrow=none;html=1;rounded=0;entryX=0.5;entryY=1;entryDx=0;entryDy=0;" edge="1" parent="1" target="p_HESIMncqtlb5lp4NN8-4">
          <mxGeometry width="50" height="50" relative="1" as="geometry">
            <mxPoint x="380" y="180" as="sourcePoint" />
            <mxPoint x="350" y="330" as="targetPoint" />
          </mxGeometry>
        </mxCell>
        <mxCell id="5w7wgQWTN3rOL7jnrAok-3" value="" style="endArrow=none;html=1;rounded=0;" edge="1" parent="1">
          <mxGeometry width="50" height="50" relative="1" as="geometry">
            <mxPoint x="60" y="180" as="sourcePoint" />
            <mxPoint x="380" y="180" as="targetPoint" />
          </mxGeometry>
        </mxCell>
        <mxCell id="5w7wgQWTN3rOL7jnrAok-4" value="" style="endArrow=none;html=1;rounded=0;exitX=0.5;exitY=0;exitDx=0;exitDy=0;" edge="1" parent="1" source="5w7wgQWTN3rOL7jnrAok-1">
          <mxGeometry width="50" height="50" relative="1" as="geometry">
            <mxPoint x="150" y="160" as="sourcePoint" />
            <mxPoint x="60" y="180" as="targetPoint" />
          </mxGeometry>
        </mxCell>
        <mxCell id="5w7wgQWTN3rOL7jnrAok-5" value="Rotor 1&lt;br&gt;encoding" style="rounded=0;whiteSpace=wrap;html=1;" vertex="1" parent="1">
          <mxGeometry x="160" y="200" width="120" height="60" as="geometry" />
        </mxCell>
        <mxCell id="5w7wgQWTN3rOL7jnrAok-6" value="Rotor 2&lt;br&gt;encoding" style="rounded=0;whiteSpace=wrap;html=1;" vertex="1" parent="1">
          <mxGeometry x="320" y="200" width="120" height="60" as="geometry" />
        </mxCell>
        <mxCell id="5w7wgQWTN3rOL7jnrAok-7" value="Rotor 3&lt;br&gt;encoding" style="rounded=0;whiteSpace=wrap;html=1;" vertex="1" parent="1">
          <mxGeometry x="480" y="200" width="120" height="60" as="geometry" />
        </mxCell>
        <mxCell id="5w7wgQWTN3rOL7jnrAok-8" value="" style="endArrow=none;html=1;rounded=0;exitX=0.5;exitY=0;exitDx=0;exitDy=0;" edge="1" parent="1" source="5w7wgQWTN3rOL7jnrAok-5">
          <mxGeometry width="50" height="50" relative="1" as="geometry">
            <mxPoint x="180" y="140" as="sourcePoint" />
            <mxPoint x="220" y="180" as="targetPoint" />
          </mxGeometry>
        </mxCell>
        <mxCell id="5w7wgQWTN3rOL7jnrAok-9" value="" style="endArrow=none;html=1;rounded=0;exitX=0.5;exitY=0;exitDx=0;exitDy=0;" edge="1" parent="1" source="5w7wgQWTN3rOL7jnrAok-6">
          <mxGeometry width="50" height="50" relative="1" as="geometry">
            <mxPoint x="360" y="220" as="sourcePoint" />
            <mxPoint x="380" y="180" as="targetPoint" />
          </mxGeometry>
        </mxCell>
        <mxCell id="5w7wgQWTN3rOL7jnrAok-10" value="" style="endArrow=none;html=1;rounded=0;" edge="1" parent="1">
          <mxGeometry width="50" height="50" relative="1" as="geometry">
            <mxPoint x="380" y="180" as="sourcePoint" />
            <mxPoint x="540" y="180" as="targetPoint" />
          </mxGeometry>
        </mxCell>
        <mxCell id="5w7wgQWTN3rOL7jnrAok-11" value="Rotor sub-system output" style="rounded=0;whiteSpace=wrap;html=1;" vertex="1" parent="1">
          <mxGeometry x="640" y="200" width="120" height="60" as="geometry" />
        </mxCell>
        <mxCell id="5w7wgQWTN3rOL7jnrAok-12" value="" style="endArrow=none;html=1;rounded=0;" edge="1" parent="1">
          <mxGeometry width="50" height="50" relative="1" as="geometry">
            <mxPoint x="540" y="180" as="sourcePoint" />
            <mxPoint x="700" y="180" as="targetPoint" />
          </mxGeometry>
        </mxCell>
        <mxCell id="5w7wgQWTN3rOL7jnrAok-13" value="" style="endArrow=none;html=1;rounded=0;exitX=0.5;exitY=0;exitDx=0;exitDy=0;" edge="1" parent="1" source="5w7wgQWTN3rOL7jnrAok-7">
          <mxGeometry width="50" height="50" relative="1" as="geometry">
            <mxPoint x="550" y="250" as="sourcePoint" />
            <mxPoint x="540" y="180" as="targetPoint" />
          </mxGeometry>
        </mxCell>
        <mxCell id="5w7wgQWTN3rOL7jnrAok-14" value="" style="endArrow=none;html=1;rounded=0;" edge="1" parent="1" source="5w7wgQWTN3rOL7jnrAok-11">
          <mxGeometry width="50" height="50" relative="1" as="geometry">
            <mxPoint x="550" y="250" as="sourcePoint" />
            <mxPoint x="700" y="180" as="targetPoint" />
          </mxGeometry>
        </mxCell>
        <mxCell id="5w7wgQWTN3rOL7jnrAok-15" value="Transpose rotor" style="rounded=0;whiteSpace=wrap;html=1;" vertex="1" parent="1">
          <mxGeometry x="160" y="300" width="120" height="60" as="geometry" />
        </mxCell>
        <mxCell id="5w7wgQWTN3rOL7jnrAok-16" value="" style="endArrow=none;html=1;rounded=0;exitX=0.5;exitY=1;exitDx=0;exitDy=0;entryX=0.5;entryY=0;entryDx=0;entryDy=0;" edge="1" parent="1" source="5w7wgQWTN3rOL7jnrAok-5" target="5w7wgQWTN3rOL7jnrAok-15">
          <mxGeometry width="50" height="50" relative="1" as="geometry">
            <mxPoint x="270" y="250" as="sourcePoint" />
            <mxPoint x="320" y="200" as="targetPoint" />
          </mxGeometry>
        </mxCell>
      </root>
    </mxGraphModel>
  </diagram>
</mxfile>
